<svg width="38" height="24" viewBox="0 0 38 24" fill="none" xmlns="http://www.w3.org/2000/svg">
<g clip-path="url(#clip0_631_607)">
<path d="M35.6 24H2.4C1.7659 23.9922 1.15996 23.7369 0.711548 23.2885C0.263136 22.84 0.00778127 22.2341 0 21.6L0 2.4C0.00778127 1.7659 0.263136 1.15996 0.711548 0.711548C1.15996 0.263136 1.7659 0.00778127 2.4 0L35.6 0C36.2341 0.00778127 36.84 0.263136 37.2885 0.711548C37.7369 1.15996 37.9922 1.7659 38 2.4V21.6C37.9922 22.2341 37.7369 22.84 37.2885 23.2885C36.84 23.7369 36.2341 23.9922 35.6 24Z" fill="white"/>
<path opacity="0.25" d="M35.6 24H2.4C1.7659 23.9922 1.15996 23.7369 0.711548 23.2885C0.263136 22.84 0.00778127 22.2341 0 21.6L0 2.4C0.00778127 1.7659 0.263136 1.15996 0.711548 0.711549C1.15996 0.263138 1.7659 0.0077831 2.4 1.82819e-06H35.5C36.1491 -0.0107444 36.7761 0.235494 37.2444 0.685052C37.7126 1.13461 37.9843 1.75104 38 2.4V21.6C37.9922 22.2341 37.7369 22.84 37.2885 23.2885C36.84 23.7369 36.2341 23.9922 35.6 24ZM2.4 1C2.21503 0.995905 2.03114 1.02932 1.85943 1.09822C1.68773 1.16713 1.53176 1.2701 1.40093 1.40093C1.2701 1.53176 1.16713 1.68773 1.09822 1.85944C1.02932 2.03114 0.995903 2.21503 1 2.4V21.6C0.995903 21.785 1.02932 21.9689 1.09822 22.1406C1.16713 22.3123 1.2701 22.4682 1.40093 22.5991C1.53176 22.7299 1.68773 22.8329 1.85943 22.9018C2.03114 22.9707 2.21503 23.0041 2.4 23H35.5C35.6904 23.0067 35.8803 22.9758 36.0588 22.909C36.2373 22.8422 36.4009 22.7409 36.5402 22.6109C36.6795 22.4809 36.7918 22.3247 36.8707 22.1512C36.9496 21.9778 36.9935 21.7905 37 21.6V2.4C37.0041 2.21503 36.9707 2.03114 36.9018 1.85944C36.8329 1.68773 36.7299 1.53176 36.5991 1.40093C36.4682 1.2701 36.3123 1.16713 36.1406 1.09822C35.9689 1.02932 35.785 0.995905 35.6 1H2.4Z" fill="#A8AAAD"/>
<path d="M9.3599 8.73C9.79566 8.58327 10.2577 8.53097 10.7152 8.57657C11.1727 8.62217 11.6153 8.76463 12.0135 8.99449C12.4118 9.22434 12.7565 9.53632 13.0248 9.90969C13.2932 10.2831 13.479 10.7093 13.5699 11.16L15.7899 10.71C15.5363 9.46504 14.8602 8.34599 13.8761 7.54233C12.892 6.73867 11.6604 6.29979 10.3899 6.3C9.79871 6.30024 9.21133 6.39476 8.6499 6.58L9.3599 8.73Z" fill="#FFCB05"/>
<path d="M6.74002 15.93L8.25002 14.23C7.90405 13.9278 7.62675 13.555 7.43676 13.1367C7.24676 12.7185 7.14846 12.2644 7.14846 11.805C7.14846 11.3456 7.24676 10.8915 7.43676 10.4733C7.62675 10.055 7.90405 9.68224 8.25002 9.38L6.74002 7.68C6.15478 8.19613 5.68607 8.83088 5.36502 9.54209C5.04397 10.2533 4.87793 11.0247 4.87793 11.805C4.87793 12.5853 5.04397 13.3567 5.36502 14.0679C5.68607 14.7791 6.15478 15.4139 6.74002 15.93Z" fill="#00A4E0"/>
<path d="M13.5699 12.45C13.479 12.9007 13.2932 13.3269 13.0248 13.7003C12.7565 14.0737 12.4118 14.3857 12.0135 14.6155C11.6153 14.8454 11.1727 14.9878 10.7152 15.0334C10.2577 15.079 9.79566 15.0267 9.3599 14.88L8.6499 17C9.21133 17.1852 9.79871 17.2798 10.3899 17.28C11.659 17.2807 12.8895 16.8432 13.8734 16.0415C14.8573 15.2399 15.5342 14.1231 15.7899 12.88L13.5699 12.45Z" fill="#EF4123"/>
<path d="M17.73 14.3C17.6433 14.1588 17.5665 14.0118 17.5 13.86C17.1533 13.0509 17.1359 12.1385 17.4515 11.3168C17.7672 10.4951 18.3909 9.82896 19.19 9.46C19.6892 9.24744 20.2319 9.1574 20.7729 9.19742C21.314 9.23743 21.8376 9.40633 22.3 9.69C22.9338 10.0767 23.4197 10.6647 23.68 11.36L23.8 11.66L17.73 14.3ZM19.73 10.78C19.3907 10.9225 19.1084 11.1736 18.9274 11.494C18.7464 11.8144 18.6769 12.1859 18.73 12.55L21.78 11.24C21.5501 10.9395 21.2221 10.7289 20.8532 10.6449C20.4842 10.5609 20.0974 10.6087 19.76 10.78H19.73ZM22.15 13.63L22.09 13.58C21.8956 13.8901 21.6088 14.1314 21.27 14.27C20.9907 14.4199 20.6729 14.4828 20.3575 14.4507C20.0421 14.4187 19.7435 14.293 19.5 14.09V14.16L18.72 15.31C18.9119 15.4485 19.1201 15.5627 19.34 15.65C19.7479 15.8305 20.189 15.9237 20.635 15.9237C21.081 15.9237 21.5221 15.8305 21.93 15.65C22.5188 15.3974 23.0198 14.9765 23.37 14.44L22.15 13.63Z" fill="#47474D"/>
<path d="M25.9201 7.76V14.2L26.9201 14.6L26.3501 15.93L25.2501 15.47C25.0248 15.3705 24.8335 15.2071 24.7001 15C24.555 14.7589 24.4821 14.4813 24.4901 14.2V7.76H25.9201Z" fill="#47474D"/>
<path d="M28.51 12.56C28.5096 12.2982 28.5657 12.0394 28.6744 11.8012C28.7831 11.5631 28.9419 11.3512 29.14 11.18L28.14 10.04C27.7863 10.3534 27.5031 10.7383 27.3091 11.1692C27.1152 11.6002 27.0149 12.0674 27.0149 12.54C27.0149 13.0126 27.1152 13.4798 27.3091 13.9108C27.5031 14.3417 27.7863 14.7266 28.14 15.04L29.14 13.9C28.9479 13.7325 28.7927 13.5268 28.6843 13.2962C28.5758 13.0655 28.5165 12.8148 28.51 12.56Z" fill="#47474D"/>
<path d="M30.33 14.38C30.1364 14.381 29.9439 14.3506 29.76 14.29L29.27 15.75C29.7209 15.8996 30.1983 15.9521 30.671 15.9042C31.1436 15.8563 31.6008 15.709 32.0125 15.472C32.4242 15.235 32.7811 14.9136 33.0599 14.529C33.3387 14.1443 33.533 13.705 33.63 13.24L32.12 12.93C32.0364 13.3419 31.8121 13.7119 31.4855 13.9765C31.1589 14.2411 30.7503 14.3838 30.33 14.38Z" fill="#47474D"/>
<path d="M30.34 9.2C29.9767 9.20029 29.6156 9.25766 29.27 9.37L29.76 10.83C29.9468 10.7661 30.1426 10.7323 30.34 10.73C30.7614 10.7295 31.1698 10.876 31.4948 11.1444C31.8197 11.4127 32.0409 11.7861 32.12 12.2L33.63 11.89C33.4756 11.1312 33.0638 10.449 32.4643 9.9588C31.8648 9.46863 31.1144 9.20058 30.34 9.2Z" fill="#47474D"/>
</g>
<defs>
<clipPath id="clip0_631_607">
<rect width="38" height="24" fill="white"/>
</clipPath>
</defs>
</svg>
