<svg viewBox="0 0 40 50" fill="none" xmlns="http://www.w3.org/2000/svg">
<path d="M37.0166 4.86115V33.1812H28.1766V19.0612L23.8166 33.1812H16.2166L11.8566 19.0612V33.1812H2.97656V4.86115H13.8566L20.0966 21.8612L26.1766 4.86115H37.0166Z" fill="#47474D"/>
<mask id="path-2-outside-1_1488_4011" maskUnits="userSpaceOnUse" x="13.9435" y="14.85" width="25" height="32" fill="black">
<rect fill="white" x="13.9435" y="14.85" width="25" height="32"/>
<path d="M37.2143 16.53V34.81C37.2143 38.1966 36.321 40.77 34.5343 42.53C32.7743 44.2633 30.2943 45.13 27.0943 45.13C23.6543 45.13 20.921 44.1833 18.8943 42.29C16.8676 40.3966 15.8543 37.6366 15.8543 34.01H24.6143C24.6143 35.1566 24.801 35.97 25.1743 36.45C25.5476 36.9033 26.0543 37.13 26.6943 37.13C27.2276 37.13 27.641 36.9566 27.9343 36.61C28.2276 36.2633 28.3743 35.6633 28.3743 34.81V16.53H37.2143Z"/>
</mask>
<path d="M37.2143 16.53V34.81C37.2143 38.1966 36.321 40.77 34.5343 42.53C32.7743 44.2633 30.2943 45.13 27.0943 45.13C23.6543 45.13 20.921 44.1833 18.8943 42.29C16.8676 40.3966 15.8543 37.6366 15.8543 34.01H24.6143C24.6143 35.1566 24.801 35.97 25.1743 36.45C25.5476 36.9033 26.0543 37.13 26.6943 37.13C27.2276 37.13 27.641 36.9566 27.9343 36.61C28.2276 36.2633 28.3743 35.6633 28.3743 34.81V16.53H37.2143Z" fill="#47474D"/>
<path d="M37.2143 16.53H38.2143C38.2143 15.9777 37.7666 15.53 37.2143 15.53V16.53ZM34.5343 42.53L35.236 43.2425L35.2361 43.2424L34.5343 42.53ZM18.8943 42.29L19.577 41.5592H19.577L18.8943 42.29ZM15.8543 34.01V33.01C15.302 33.01 14.8543 33.4577 14.8543 34.01H15.8543ZM24.6143 34.01H25.6143C25.6143 33.4577 25.1666 33.01 24.6143 33.01V34.01ZM25.1743 36.45L24.3849 37.0639C24.3907 37.0713 24.3965 37.0785 24.4024 37.0857L25.1743 36.45ZM27.9343 36.61L27.1709 35.964L27.1709 35.964L27.9343 36.61ZM28.3743 16.53V15.53C27.822 15.53 27.3743 15.9777 27.3743 16.53H28.3743ZM36.2143 16.53V34.81H38.2143V16.53H36.2143ZM36.2143 34.81C36.2143 38.0256 35.369 40.304 33.8325 41.8176L35.2361 43.2424C37.2729 41.236 38.2143 38.3677 38.2143 34.81H36.2143ZM33.8326 41.8175C32.3103 43.3168 30.1125 44.13 27.0943 44.13V46.13C30.4761 46.13 33.2383 45.2099 35.236 43.2425L33.8326 41.8175ZM27.0943 44.13C23.8439 44.13 21.3765 43.2404 19.577 41.5592L18.2116 43.0207C20.4654 45.1262 23.4647 46.13 27.0943 46.13V44.13ZM19.577 41.5592C17.81 39.9086 16.8543 37.4492 16.8543 34.01H14.8543C14.8543 37.8241 15.9252 40.8847 18.2116 43.0207L19.577 41.5592ZM15.8543 35.01H24.6143V33.01H15.8543V35.01ZM23.6143 34.01C23.6143 35.2088 23.7983 36.3097 24.3849 37.0639L25.9637 35.836C25.8036 35.6303 25.6143 35.1045 25.6143 34.01H23.6143ZM24.4024 37.0857C24.9843 37.7923 25.786 38.13 26.6943 38.13V36.13C26.3226 36.13 26.111 36.0144 25.9462 35.8143L24.4024 37.0857ZM26.6943 38.13C27.4649 38.13 28.1805 37.8672 28.6977 37.2559L27.1709 35.964C27.1015 36.0461 26.9903 36.13 26.6943 36.13V38.13ZM28.6977 37.2559C29.2302 36.6265 29.3743 35.718 29.3743 34.81H27.3743C27.3743 35.6086 27.225 35.9001 27.1709 35.964L28.6977 37.2559ZM29.3743 34.81V16.53H27.3743V34.81H29.3743ZM28.3743 17.53H37.2143V15.53H28.3743V17.53Z" fill="white" mask="url(#path-2-outside-1_1488_4011)"/>
</svg>
