<svg width="38" height="24" viewBox="0 0 38 24" fill="none" xmlns="http://www.w3.org/2000/svg">
<g clip-path="url(#clip0_632_611)">
<path d="M35.7 23.965H2.3C1.69057 23.9632 1.10663 23.7202 0.675694 23.2893C0.24476 22.8584 0.00184637 22.2744 0 21.665L0 2.265C0 0.999997 1.035 -0.0350037 2.3 -0.0350037H35.7C36.965 -0.0350037 38 0.999997 38 2.265V21.665C38 22.93 36.965 23.965 35.7 23.965Z" fill="white"/>
<path opacity="0.25" d="M35.564 23.965H2.436C1.092 23.965 0 22.888 0 21.565V2.365C0 1.042 1.092 -0.0350037 2.436 -0.0350037H35.564C36.908 -0.0350037 38 1.042 38 2.365V21.565C38 22.888 36.908 23.965 35.564 23.965ZM2.436 0.924996C1.63 0.924996 0.974 1.571 0.974 2.365V21.565C0.974 22.359 1.63 23.005 2.436 23.005H35.564C36.37 23.005 37.026 22.359 37.026 21.565V2.365C37.026 1.571 36.37 0.924996 35.564 0.924996H2.436Z" fill="#A7A8AB"/>
<path d="M8.07905 4.94501H8.77905V11.243H8.07905V4.94501ZM6.24905 4.94501H6.94905V11.243H6.24905V4.94501ZM13.505 4.94501H15.406V11.243H13.505V4.94501ZM23.22 4.94501H24.17V11.243H23.22V4.94501ZM25.544 4.94501H26.494V11.243H25.544V4.94501ZM29.348 4.94501H30.569V11.243H29.348V4.94501ZM27.973 4.94501H28.368V11.243H27.973V4.94501ZM21.584 4.94501H21.979V11.243H21.584V4.94501ZM20.739 4.94501H21.134V11.243H20.739V4.94501ZM17.993 4.94501H18.388V11.243H17.993V4.94501ZM11.683 4.94501H12.078V11.243H11.683V4.94501ZM10.52 4.94501H11.253V11.243H10.52V4.94501ZM6.24905 19.3V12.822H8.68005C9.17505 12.822 9.57105 12.887 9.87105 13.018C10.17 13.149 10.403 13.351 10.572 13.624C10.742 13.895 10.827 14.18 10.827 14.479C10.827 14.755 10.752 15.016 10.602 15.26C10.4371 15.5185 10.2014 15.7243 9.92305 15.853C10.315 15.968 10.617 16.164 10.826 16.441C11.037 16.717 11.143 17.044 11.143 17.421C11.143 17.726 11.078 18.008 10.95 18.268C10.8415 18.5037 10.6787 18.7103 10.475 18.871C10.286 19.011 10.05 19.118 9.76605 19.191C9.42311 19.2697 9.07185 19.3063 8.72005 19.3H6.24905ZM7.10905 15.545H8.51005C8.89005 15.545 9.16305 15.519 9.32705 15.47C9.52302 15.4202 9.69662 15.3062 9.82005 15.146C9.93514 14.9799 9.99338 14.781 9.98605 14.579C9.99075 14.3786 9.93688 14.1812 9.83105 14.011C9.72805 13.847 9.58105 13.733 9.38905 13.673C9.19705 13.613 8.86905 13.583 8.40405 13.583H7.10905V15.545ZM7.10905 18.54H8.72305C9.00005 18.54 9.19505 18.529 9.30805 18.508C9.50405 18.473 9.67005 18.414 9.80305 18.332C9.94182 18.242 10.0546 18.1172 10.13 17.97C10.216 17.812 10.258 17.629 10.258 17.423C10.258 17.18 10.196 16.971 10.071 16.791C9.94611 16.6111 9.76441 16.4783 9.55505 16.414C9.33605 16.342 9.02005 16.305 8.60805 16.305H7.10905V18.54ZM11.922 16.952C11.922 16.085 12.163 15.443 12.647 15.025C13.05 14.678 13.543 14.505 14.123 14.505C14.767 14.505 15.295 14.716 15.705 15.138C16.114 15.559 16.319 16.142 16.319 16.886C16.319 17.489 16.229 17.963 16.048 18.308C15.8707 18.6497 15.5948 18.9301 15.256 19.113C14.9097 19.3045 14.5197 19.403 14.124 19.399C13.467 19.399 12.936 19.189 12.53 18.769C12.124 18.348 11.922 17.742 11.922 16.952ZM12.736 16.954C12.736 17.554 12.867 18.004 13.13 18.301C13.394 18.6 13.724 18.749 14.124 18.749C14.519 18.749 14.848 18.6 15.112 18.3C15.374 18 15.506 17.543 15.506 16.929C15.506 16.35 15.373 15.911 15.109 15.614C14.9884 15.4709 14.8374 15.3565 14.667 15.279C14.4967 15.2015 14.3112 15.1629 14.124 15.166C13.724 15.166 13.394 15.314 13.13 15.611C12.868 15.908 12.736 16.355 12.736 16.954ZM17.234 19.3V12.822H18.03V19.3H17.234ZM22.465 17.78L23.288 17.889C23.16 18.367 22.92 18.739 22.57 19.003C22.22 19.267 21.774 19.4 21.229 19.4C20.544 19.4 20.002 19.189 19.6 18.767C19.199 18.346 18.998 17.754 18.998 16.992C18.998 16.205 19.2 15.593 19.606 15.158C20.012 14.722 20.538 14.505 21.185 14.505C21.811 14.505 22.322 14.718 22.719 15.144C23.116 15.571 23.315 16.171 23.315 16.944L23.311 17.155H19.814C19.844 17.669 19.989 18.064 20.251 18.337C20.3762 18.4704 20.5281 18.5758 20.6968 18.6465C20.8655 18.7171 21.0472 18.7514 21.23 18.747C21.521 18.747 21.77 18.67 21.975 18.516C22.182 18.362 22.344 18.116 22.465 17.779V17.78ZM19.859 16.504H22.474C22.439 16.109 22.338 15.813 22.174 15.616C22.057 15.4684 21.9073 15.3501 21.7367 15.2703C21.5661 15.1904 21.3793 15.1513 21.191 15.156C20.826 15.156 20.52 15.278 20.271 15.522C20.024 15.766 19.886 16.094 19.859 16.504ZM26.023 18.59L26.132 19.293C25.9353 19.3371 25.7346 19.3609 25.533 19.364C25.245 19.364 25.022 19.319 24.862 19.227C24.704 19.135 24.592 19.016 24.527 18.867C24.462 18.718 24.43 18.404 24.43 17.926V15.221H23.842V14.606H24.43V13.445L25.226 12.967V14.606H26.022V15.221H25.226V17.972C25.226 18.2 25.24 18.346 25.268 18.411C25.2953 18.4761 25.343 18.5305 25.404 18.566C25.4877 18.6087 25.5813 18.6284 25.675 18.623L26.022 18.591L26.023 18.59ZM26.51 16.952C26.51 16.085 26.751 15.443 27.235 15.025C27.638 14.678 28.131 14.505 28.711 14.505C29.355 14.505 29.883 14.716 30.293 15.138C30.702 15.559 30.907 16.142 30.907 16.886C30.907 17.489 30.817 17.963 30.636 18.308C30.4587 18.6497 30.1828 18.9301 29.844 19.113C29.4977 19.3045 29.1077 19.403 28.712 19.399C28.055 19.399 27.524 19.189 27.118 18.769C26.712 18.348 26.51 17.742 26.51 16.952ZM27.324 16.954C27.324 17.554 27.455 18.004 27.718 18.301C27.982 18.6 28.312 18.749 28.712 18.749C29.107 18.749 29.436 18.6 29.7 18.3C29.962 18 30.094 17.543 30.094 16.929C30.094 16.35 29.961 15.911 29.697 15.614C29.5764 15.4709 29.4254 15.3565 29.255 15.279C29.0847 15.2015 28.8992 15.1629 28.712 15.166C28.312 15.166 27.982 15.314 27.718 15.611C27.456 15.908 27.324 16.355 27.324 16.954Z" fill="#221F1F"/>
</g>
<defs>
<clipPath id="clip0_632_611">
<rect width="38" height="24" fill="white"/>
</clipPath>
</defs>
</svg>
