<svg width="50" height="50" viewBox="0 0 50 50" fill="none" xmlns="http://www.w3.org/2000/svg">
<mask id="mask0_431_1188" maskUnits="userSpaceOnUse" x="14" y="14" width="23" height="23">
<path d="M36.1354 23.375H25.4583V27.8021H31.6042C31.0312 30.6146 28.6354 32.2292 25.4583 32.2292C21.7083 32.2292 18.6875 29.2083 18.6875 25.4583C18.6875 21.7083 21.7083 18.6875 25.4583 18.6875C27.0729 18.6875 28.5312 19.2604 29.6771 20.1979L33.0104 16.8646C30.9792 15.0938 28.375 14 25.4583 14C19.1042 14 14 19.1042 14 25.4583C14 31.8125 19.1042 36.9167 25.4583 36.9167C31.1875 36.9167 36.3958 32.75 36.3958 25.4583C36.3958 24.7813 36.2917 24.0521 36.1354 23.375Z" fill="white"/>
</mask>
<g mask="url(#mask0_431_1188)">
<path d="M12.9583 32.2292V18.6875L21.8125 25.4583L12.9583 32.2292Z" fill="#FBBC05"/>
</g>
<mask id="mask1_431_1188" maskUnits="userSpaceOnUse" x="14" y="14" width="23" height="23">
<path d="M36.1354 23.375H25.4583V27.8021H31.6042C31.0312 30.6146 28.6354 32.2292 25.4583 32.2292C21.7083 32.2292 18.6875 29.2083 18.6875 25.4583C18.6875 21.7083 21.7083 18.6875 25.4583 18.6875C27.0729 18.6875 28.5312 19.2604 29.6771 20.1979L33.0104 16.8646C30.9792 15.0938 28.375 14 25.4583 14C19.1042 14 14 19.1042 14 25.4583C14 31.8125 19.1042 36.9167 25.4583 36.9167C31.1875 36.9167 36.3958 32.75 36.3958 25.4583C36.3958 24.7813 36.2917 24.0521 36.1354 23.375Z" fill="white"/>
</mask>
<g mask="url(#mask1_431_1188)">
<path d="M12.9583 18.6874L21.8125 25.4583L25.4583 22.2812L37.9583 20.2499V12.9583H12.9583V18.6874Z" fill="#EA4335"/>
</g>
<mask id="mask2_431_1188" maskUnits="userSpaceOnUse" x="14" y="14" width="23" height="23">
<path d="M36.1354 23.375H25.4583V27.8021H31.6042C31.0312 30.6146 28.6354 32.2292 25.4583 32.2292C21.7083 32.2292 18.6875 29.2083 18.6875 25.4583C18.6875 21.7083 21.7083 18.6875 25.4583 18.6875C27.0729 18.6875 28.5312 19.2604 29.6771 20.1979L33.0104 16.8646C30.9792 15.0938 28.375 14 25.4583 14C19.1042 14 14 19.1042 14 25.4583C14 31.8125 19.1042 36.9167 25.4583 36.9167C31.1875 36.9167 36.3958 32.75 36.3958 25.4583C36.3958 24.7813 36.2917 24.0521 36.1354 23.375Z" fill="white"/>
</mask>
<g mask="url(#mask2_431_1188)">
<path d="M12.9583 32.2291L28.5833 20.2499L32.6979 20.7708L37.9583 12.9583V37.9583H12.9583V32.2291Z" fill="#34A853"/>
</g>
<mask id="mask3_431_1188" maskUnits="userSpaceOnUse" x="14" y="14" width="23" height="23">
<path d="M36.1354 23.375H25.4583V27.8021H31.6042C31.0312 30.6146 28.6354 32.2292 25.4583 32.2292C21.7083 32.2292 18.6875 29.2083 18.6875 25.4583C18.6875 21.7083 21.7083 18.6875 25.4583 18.6875C27.0729 18.6875 28.5312 19.2604 29.6771 20.1979L33.0104 16.8646C30.9792 15.0938 28.375 14 25.4583 14C19.1042 14 14 19.1042 14 25.4583C14 31.8125 19.1042 36.9167 25.4583 36.9167C31.1875 36.9167 36.3958 32.75 36.3958 25.4583C36.3958 24.7813 36.2917 24.0521 36.1354 23.375Z" fill="white"/>
</mask>
<g mask="url(#mask3_431_1188)">
<path d="M37.9583 37.9583L21.8125 25.4583L19.7292 23.8958L37.9583 18.6875V37.9583Z" fill="#4285F4"/>
</g>
</svg>
