<svg width="38" height="24" viewBox="0 0 38 24" fill="none" xmlns="http://www.w3.org/2000/svg">
<g clip-path="url(#clip0_631_609)">
<path opacity="0.07" d="M35 0H3C2.20435 0 1.44129 0.31607 0.87868 0.87868C0.31607 1.44129 0 2.20435 0 3L0 21C0 21.7956 0.31607 22.5587 0.87868 23.1213C1.44129 23.6839 2.20435 24 3 24H35C35.7957 24 36.5587 23.6839 37.1213 23.1213C37.6839 22.5587 38 21.7956 38 21V3C38 2.20435 37.6839 1.44129 37.1213 0.87868C36.5587 0.31607 35.7957 0 35 0Z" fill="#47474D"/>
<path d="M35 1C35.5304 1 36.0391 1.21071 36.4142 1.58579C36.7893 1.96086 37 2.46957 37 3V21C37 21.5304 36.7893 22.0391 36.4142 22.4142C36.0391 22.7893 35.5304 23 35 23H3C2.46957 23 1.96086 22.7893 1.58579 22.4142C1.21071 22.0391 1 21.5304 1 21V3C1 2.46957 1.21071 1.96086 1.58579 1.58579C1.96086 1.21071 2.46957 1 3 1H35Z" fill="white"/>
<path d="M25.2599 16.23C23.4939 17.6796 21.2846 18.4807 18.9999 18.5C17.5467 18.4833 16.113 18.1634 14.7905 17.5607C13.468 16.958 12.2859 16.0858 11.3199 15C11.1599 14.83 11.3199 14.59 11.4899 14.73C13.7484 16.2804 16.4205 17.1166 19.1599 17.13C21.1861 17.129 23.1847 16.6602 24.9999 15.76C25.2899 15.61 25.5299 15.98 25.2499 16.23H25.2599ZM25.9699 15.23C25.7499 14.9 24.5299 15.08 23.9699 15.15C23.7999 15.15 23.7699 15.01 23.9699 14.88C24.3552 14.5795 24.8166 14.3922 25.3023 14.3392C25.788 14.2862 26.2789 14.3696 26.7199 14.58C26.7743 15.1315 26.7135 15.6883 26.5414 16.215C26.3692 16.7418 26.0895 17.227 25.7199 17.64C25.5799 17.78 25.4499 17.71 25.5099 17.52C25.7199 16.92 26.1799 15.52 25.9599 15.23H25.9699Z" fill="#FF9900"/>
<path d="M21.81 15.29C21.4112 14.9494 21.0731 14.5436 20.81 14.09C20.4812 14.518 20.0542 14.8605 19.5651 15.0885C19.076 15.3165 18.5391 15.4234 18 15.4C17.6364 15.4127 17.2743 15.3466 16.9387 15.2061C16.6031 15.0656 16.302 14.8541 16.0559 14.5862C15.8098 14.3182 15.6246 14.0002 15.5131 13.6538C15.4016 13.3075 15.3664 12.9412 15.41 12.58C15.3861 11.9593 15.5498 11.3458 15.8799 10.8196C16.2099 10.2934 16.6908 9.87881 17.26 9.63C18.2981 9.26889 19.3822 9.05678 20.48 9V8.77C20.5328 8.32231 20.4601 7.86874 20.27 7.46C20.1581 7.30189 20.0072 7.17548 19.8319 7.0931C19.6567 7.01073 19.463 6.9752 19.27 6.99C18.946 6.96751 18.6251 7.06524 18.3687 7.26449C18.1122 7.46373 17.9382 7.75052 17.88 8.07C17.8711 8.14961 17.8373 8.22438 17.7835 8.28364C17.7296 8.34291 17.6584 8.38363 17.58 8.4L15.9 8.21C15.8576 8.20283 15.8171 8.18719 15.7809 8.16403C15.7447 8.14087 15.7136 8.11066 15.6893 8.07519C15.665 8.03973 15.6481 7.99974 15.6397 7.95762C15.6312 7.91549 15.6313 7.87209 15.64 7.83C16.03 5.71 17.87 5.07 19.51 5.07C20.4617 5.03413 21.3926 5.35511 22.12 5.97C22.96 6.79 22.88 7.89 22.88 9.08V11.9C22.8819 12.518 23.1135 13.1133 23.53 13.57C23.5911 13.6349 23.6252 13.7208 23.6252 13.81C23.6252 13.8992 23.5911 13.9851 23.53 14.05C23.18 14.36 22.53 14.93 22.21 15.25C22.1548 15.2957 22.0873 15.3239 22.0161 15.331C21.9448 15.3382 21.873 15.3239 21.81 15.29ZM20.15 12.76C20.429 12.1608 20.543 11.498 20.48 10.84V10.45C19.23 10.45 17.91 10.73 17.91 12.27C17.91 13.05 18.29 13.58 18.96 13.58C19.2144 13.5656 19.46 13.4814 19.6699 13.3368C19.8798 13.1922 20.0458 12.9926 20.15 12.76Z" fill="#221F1F"/>
<path d="M11.33 4.25H7.81C6.25 4.33 4.98 4.95 4.61 6.25C4.42 6.92 4.32 7.66 4.17 8.36C3.4 11.92 2.73 15.57 2 19.05H29.43C31.55 19.05 33.01 18.61 33.43 16.92C33.62 16.14 33.79 15.25 33.97 14.4L36 4.25H11.33Z" fill="#B82126"/>
<path d="M25.49 13.1C25.11 13.47 24.04 13.57 24.15 12.68C24.24 11.94 25.04 11.79 25.92 11.89C25.8961 12.3263 25.7468 12.7465 25.49 13.1ZM24.29 10.21C24.29 10.42 24.19 10.6 24.15 10.8C24.58 10.69 25.94 10.35 26.07 10.93C26.0958 11.1172 26.0681 11.3079 25.99 11.48C24.76 11.37 23.76 11.57 23.5 12.48C23.4006 12.7125 23.3852 12.9723 23.4564 13.215C23.5275 13.4576 23.6808 13.668 23.89 13.81C24.2238 13.9394 24.5907 13.9567 24.9353 13.8593C25.2798 13.7619 25.5833 13.5551 25.8 13.27C25.7617 13.4507 25.7449 13.6353 25.75 13.82H26.38C26.4003 13.2659 26.4638 12.7142 26.57 12.17C26.6848 11.7349 26.7552 11.2893 26.78 10.84C26.72 9.85 25.16 10.19 24.29 10.21ZM30.66 13.39C30.16 13.39 29.91 13.09 29.9 12.58C29.9 11.69 30.27 10.7 31.07 10.58C31.3793 10.5521 31.6909 10.5966 31.98 10.71C31.73 11.75 31.82 13.36 30.66 13.39ZM32.3 8.67C32.2442 9.20396 32.1607 9.73467 32.05 10.26C30.24 9.69 29.12 11.02 29.14 12.67C29.1243 12.9781 29.2162 13.2822 29.4 13.53C29.6566 13.7278 29.9649 13.8473 30.2878 13.8739C30.6107 13.9005 30.9345 13.8332 31.22 13.68C31.321 13.609 31.409 13.521 31.48 13.42C31.53 13.36 31.6 13.21 31.62 13.25C31.5813 13.4243 31.5579 13.6016 31.55 13.78H32.22C32.3886 12.064 32.649 10.3582 33 8.67H32.3ZM13.4 13.11C13.01 13.53 12.03 13.53 11.96 12.82C11.9631 12.5017 12.0102 12.1854 12.1 11.88C12.15 11.56 12.19 11.25 12.25 10.97C12.64 10.49 13.78 10.43 13.9 11.22C13.9855 11.8911 13.8062 12.569 13.4 13.11ZM13.98 10.21C13.69 10.1297 13.3856 10.1159 13.0896 10.1696C12.7935 10.2232 12.5133 10.343 12.27 10.52C12.27 10.41 12.27 10.33 12.32 10.21H11.68C11.42 11.97 11.1 13.69 10.77 15.38H11.51C11.62 14.72 11.69 14.02 11.84 13.38C12.01 14.03 13.11 13.9 13.57 13.65C14.53 13.16 15.27 10.69 14 10.21H13.98ZM17.49 11.45H15.75C15.784 11.2097 15.9041 10.99 16.0881 10.8318C16.2721 10.6735 16.5073 10.5876 16.75 10.59C17.26 10.57 17.64 10.78 17.49 11.45ZM16.78 10.14C16.2937 10.1479 15.8288 10.3411 15.48 10.68C15.0013 11.2925 14.779 12.0669 14.86 12.84C15 14 16.47 14 17.66 13.7C17.66 13.49 17.73 13.31 17.76 13.11C17.4778 13.2547 17.1689 13.34 16.8524 13.3607C16.536 13.3813 16.2186 13.3368 15.92 13.23C15.55 12.99 15.54 12.39 15.67 11.86C16.46 11.86 17.29 11.86 18.09 11.86C18.1977 11.4865 18.2216 11.0938 18.16 10.71C18 10.22 17.39 10.1 16.78 10.14ZM10.29 10.21C10.12 11.43 9.89999 12.59 9.66999 13.73H10.41C10.58 12.51 10.79 11.31 11.04 10.16L10.29 10.21ZM29.56 10.21C29.2988 10.1087 29.0091 10.109 28.748 10.2108C28.487 10.3126 28.2736 10.5086 28.15 10.76C28.21 10.59 28.21 10.36 28.27 10.19H27.62C27.44 11.42 27.23 12.61 26.98 13.76H27.74C27.7566 13.329 27.8135 12.9004 27.91 12.48C28.07 11.48 28.3 10.4 29.45 10.72C29.49 10.58 29.51 10.39 29.56 10.23V10.21ZM21.26 12.92C21.1977 12.6957 21.1773 12.4617 21.2 12.23C21.2129 11.7327 21.3846 11.2527 21.69 10.86C21.9493 10.6965 22.246 10.6015 22.5521 10.584C22.8582 10.5665 23.1637 10.6271 23.44 10.76C23.44 10.55 23.5 10.37 23.53 10.17C23.1146 10.0545 22.6781 10.0368 22.2548 10.1184C21.8314 10.1999 21.4327 10.3785 21.09 10.64C20.8175 10.9777 20.624 11.3721 20.5236 11.7943C20.4233 12.2165 20.4186 12.6558 20.51 13.08C20.77 13.95 21.97 13.99 22.93 13.66C22.93 13.49 22.99 13.29 23.03 13.11C22.51 13.4 21.5 13.55 21.26 12.94V12.92ZM20.85 10.19C20.5824 10.0969 20.2898 10.1068 20.0291 10.2178C19.7685 10.3287 19.5585 10.5327 19.44 10.79C19.4915 10.5925 19.5316 10.3921 19.56 10.19H18.91C18.75 11.43 18.52 12.59 18.29 13.76H19C19.0664 12.9846 19.1935 12.2156 19.38 11.46C19.4076 11.3144 19.4671 11.1768 19.5544 11.057C19.6417 10.9373 19.7544 10.8385 19.8846 10.7676C20.0147 10.6968 20.159 10.6558 20.3069 10.6476C20.4549 10.6393 20.6028 10.6641 20.74 10.72C20.78 10.55 20.83 10.4 20.85 10.21V10.19ZM8.99999 8.77C8.89999 9.45 8.77999 10.12 8.65999 10.77C7.89999 10.77 7.10999 10.77 6.37999 10.77C6.51999 10.11 6.61999 9.42 6.74999 8.77H5.87999C5.58999 10.44 5.31999 12.14 4.98999 13.77H5.82999C5.95999 12.93 6.07999 12.08 6.25999 11.28C6.97999 11.28 7.83999 11.28 8.51999 11.28C8.37999 12.11 8.20999 12.91 8.07999 13.75H8.91999C9.18999 12.05 9.46999 10.37 9.80999 8.75L8.99999 8.77ZM11.1 9.53C11.25 9.42 11.44 8.96 11.22 8.77C11.1668 8.74502 11.1088 8.73208 11.05 8.73208C10.9912 8.73208 10.9332 8.74502 10.88 8.77C10.8222 8.77244 10.7657 8.78707 10.714 8.81292C10.6622 8.83877 10.6166 8.87526 10.58 8.92C10.49 9.05 10.4 9.43 10.58 9.58C10.76 9.73 11.03 9.64 11.13 9.58L11.1 9.53Z" fill="white"/>
</g>
<defs>
<clipPath id="clip0_631_609">
<rect width="38" height="24" fill="white"/>
</clipPath>
</defs>
</svg>
