<svg width="38" height="24" viewBox="0 0 38 24" fill="none" xmlns="http://www.w3.org/2000/svg">
<g clip-path="url(#clip0_631_608)">
<path d="M35.6 24H2.4C1.7659 23.9922 1.15996 23.7369 0.711548 23.2885C0.263136 22.84 0.00778127 22.2341 0 21.6L0 2.4C0.00778127 1.7659 0.263136 1.15996 0.711548 0.711548C1.15996 0.263136 1.7659 0.00778127 2.4 0L35.6 0C36.2341 0.00778127 36.84 0.263136 37.2885 0.711548C37.7369 1.15996 37.9922 1.7659 38 2.4V21.6C37.9922 22.2341 37.7369 22.84 37.2885 23.2885C36.84 23.7369 36.2341 23.9922 35.6 24Z" fill="white"/>
<path opacity="0.25" d="M35.6 24H2.4C1.7659 23.9922 1.15996 23.7369 0.711548 23.2885C0.263136 22.84 0.00778127 22.2341 0 21.6L0 2.4C0.00778127 1.7659 0.263136 1.15996 0.711548 0.711549C1.15996 0.263138 1.7659 0.0077831 2.4 1.82819e-06H35.5C36.1491 -0.0107444 36.7761 0.235494 37.2444 0.685052C37.7126 1.13461 37.9843 1.75104 38 2.4V21.6C37.9922 22.2341 37.7369 22.84 37.2885 23.2885C36.84 23.7369 36.2341 23.9922 35.6 24ZM2.4 1C2.22008 0.996019 2.04113 1.02752 1.87339 1.09272C1.70565 1.15791 1.55239 1.25552 1.42238 1.37995C1.29237 1.50439 1.18815 1.65323 1.11568 1.81796C1.0432 1.98268 1.0039 2.16008 1 2.34V21.6C0.996017 21.7799 1.02752 21.9589 1.09272 22.1266C1.15791 22.2944 1.25551 22.4476 1.37995 22.5776C1.50439 22.7076 1.65323 22.8118 1.81795 22.8843C1.98268 22.9568 2.16008 22.9961 2.34 23H35.5C35.6904 23.0067 35.8803 22.9758 36.0588 22.909C36.2373 22.8422 36.4009 22.7409 36.5402 22.6109C36.6795 22.4809 36.7918 22.3247 36.8707 22.1512C36.9496 21.9778 36.9935 21.7905 37 21.6V2.4C37.004 2.22008 36.9725 2.04114 36.9073 1.87339C36.8421 1.70565 36.7445 1.5524 36.62 1.42238C36.4956 1.29237 36.3468 1.18815 36.182 1.11568C36.0173 1.04321 35.8399 1.0039 35.66 1H2.4Z" fill="#A8AAAD"/>
<path d="M8.39992 23H31.5199C31.8486 22.5432 32.0742 22.0205 32.1812 21.4681C32.2883 20.9156 32.2742 20.3465 32.1399 19.8L28.2599 4.23C28.0094 3.23297 27.3745 2.37564 26.4938 1.84535C25.6131 1.31507 24.5583 1.15495 23.5599 1.4L7.99992 5.28C7.50317 5.40283 7.03554 5.62246 6.62382 5.92631C6.2121 6.23017 5.86437 6.61226 5.60055 7.05072C5.33673 7.48917 5.16201 7.97537 5.0864 8.48146C5.01079 8.98755 5.03577 9.50358 5.15992 10L8.39992 23Z" fill="#EB5D15"/>
<path d="M11.95 11.19V13.6H9.61998V11.19H7.97998V17.78H9.61998V15.02H11.95V17.78H13.59V11.19H11.95Z" fill="#FFFBFF"/>
<path d="M19.38 12.82C17.92 12.82 17.88 13.6 17.88 13.6V13H16.58V16.66C15.78 16.66 15.81 15.78 15.81 15.78V13H14.21V15.73C14.21 17.78 16.52 17.91 16.52 17.91V19.59H18.09V18C21.09 18 21.45 16.72 21.45 15.47C21.45 14.22 20.85 12.82 19.38 12.82ZM18.65 16.66H18.09V14.66C18.1197 14.4698 18.2214 14.2984 18.374 14.1811C18.5267 14.0638 18.7185 14.0097 18.91 14.03C19.67 14.03 19.84 14.98 19.84 15.48C19.84 15.98 19.69 16.66 18.65 16.66Z" fill="white"/>
<path d="M15.81 11.71C15.823 11.83 15.8105 11.9515 15.7735 12.0664C15.7365 12.1813 15.6756 12.2872 15.595 12.377C15.5143 12.4669 15.4157 12.5388 15.3054 12.588C15.1951 12.6372 15.0757 12.6626 14.955 12.6626C14.8342 12.6626 14.7148 12.6372 14.6046 12.588C14.4943 12.5388 14.3956 12.4669 14.315 12.377C14.2343 12.2872 14.1735 12.1813 14.1364 12.0664C14.0994 11.9515 14.087 11.83 14.1 11.71C14.1 11.4846 14.1895 11.2684 14.3489 11.109C14.5083 10.9496 14.7245 10.86 14.95 10.86C15.1763 10.86 15.3936 10.9492 15.5546 11.1083C15.7156 11.2675 15.8073 11.4837 15.81 11.71Z" fill="#FCCF11"/>
<path d="M24.0001 12.82C21.5201 12.82 21.6701 15.63 21.6701 15.58C21.6513 15.9013 21.7022 16.2229 21.8195 16.5226C21.9367 16.8224 22.1175 17.0932 22.3493 17.3165C22.5811 17.5397 22.8585 17.7102 23.1625 17.8161C23.4664 17.922 23.7897 17.9609 24.1101 17.93C24.7559 17.9178 25.395 17.796 26.0001 17.57L25.8501 16.49C25.8501 16.49 23.3101 17.18 23.0901 15.84H26.1801C26.1801 15.84 26.5001 12.82 24.0001 12.82ZM24.8601 14.82H23.0701C23.0701 14.82 23.0101 13.82 23.9801 13.82C24.9501 13.82 24.8801 14.79 24.8801 14.79L24.8601 14.82Z" fill="#FFFBFF"/>
<path d="M28.0001 13H26.5601V17.78H28.2501V15C28.2501 15 28.1601 14 29.5401 14.29V12.82C29.2329 12.7555 28.913 12.7977 28.633 12.9395C28.3531 13.0813 28.1298 13.3143 28.0001 13.6V13Z" fill="#FFFBFF"/>
</g>
<defs>
<clipPath id="clip0_631_608">
<rect width="38" height="24" fill="white"/>
</clipPath>
</defs>
</svg>
