<svg width="38" height="47" viewBox="0 0 38 47" fill="none" xmlns="http://www.w3.org/2000/svg">
<path d="M0 0H10V31H0V0Z" fill="#47474D"/>
<path d="M1 4.2262L10.0631 1.38879e-05L24 31.0046H14L1 4.2262Z" fill="#47474D"/>
<path fill-rule="evenodd" clip-rule="evenodd" d="M38 0H28L14 31.0046H24L27 24.8549V15H28H31.8075H38V0ZM28 16V22.805V31H38V16H31.3196H28Z" fill="#47474D"/>
<path d="M28 16H38V37C38 42.5228 33.5228 47 28 47V16Z" fill="#47474D"/>
<path d="M14 32H24V47C18.4772 47 14 42.5228 14 37V32Z" fill="#47474D"/>
<path d="M24 38C24.5306 40.0692 27.4694 40.0692 28 38V47H24V38Z" fill="#47474D"/>
</svg>
