<svg width="160" height="50" viewBox="0 0 160 50" fill="none" xmlns="http://www.w3.org/2000/svg">
<path d="M15.4299 19.256V32H11.4519V25.646L9.48991 32H6.06991L4.10791 25.646V32H0.111914V19.256H5.00791L7.81591 26.906L10.5519 19.256H15.4299ZM27.205 30.074H22.957L22.327 32H18.133L22.795 19.256H27.403L32.047 32H27.835L27.205 30.074ZM26.233 27.068L25.081 23.522L23.929 27.068H26.233ZM41.1629 32L38.7689 27.428H38.7509V32H34.7549V19.256H40.6949C41.7269 19.256 42.6089 19.442 43.3409 19.814C44.0729 20.174 44.6189 20.672 44.9789 21.308C45.3509 21.932 45.5369 22.64 45.5369 23.432C45.5369 24.284 45.2969 25.04 44.8169 25.7C44.3489 26.36 43.6709 26.834 42.7829 27.122L45.5549 32H41.1629ZM38.7509 24.764H40.3349C40.7189 24.764 41.0069 24.68 41.1989 24.512C41.3909 24.332 41.4869 24.056 41.4869 23.684C41.4869 23.348 41.3849 23.084 41.1809 22.892C40.9889 22.7 40.7069 22.604 40.3349 22.604H38.7509V24.764ZM56.3175 32L52.6095 26.474V32H48.6135V19.256H52.6095V24.62L56.2635 19.256H60.7815L56.3895 25.358L61.0695 32H56.3175ZM65.0454 19.256H69.0054L66.8814 24.566H64.2534L65.0454 19.256ZM77.5901 32.126C76.0661 32.126 74.8061 31.772 73.8101 31.064C72.8261 30.344 72.2921 29.294 72.2081 27.914H76.4561C76.5161 28.646 76.8401 29.012 77.4281 29.012C77.6441 29.012 77.8241 28.964 77.9681 28.868C78.1241 28.76 78.2021 28.598 78.2021 28.382C78.2021 28.082 78.0401 27.842 77.7161 27.662C77.3921 27.47 76.8881 27.254 76.2041 27.014C75.3881 26.726 74.7101 26.444 74.1701 26.168C73.6421 25.892 73.1861 25.49 72.8021 24.962C72.4181 24.434 72.2321 23.756 72.2441 22.928C72.2441 22.1 72.4541 21.398 72.8741 20.822C73.3061 20.234 73.8881 19.79 74.6201 19.49C75.3641 19.19 76.1981 19.04 77.1221 19.04C78.6821 19.04 79.9181 19.4 80.8301 20.12C81.7541 20.84 82.2401 21.854 82.2881 23.162H77.9861C77.9741 22.802 77.8841 22.544 77.7161 22.388C77.5481 22.232 77.3441 22.154 77.1041 22.154C76.9361 22.154 76.7981 22.214 76.6901 22.334C76.5821 22.442 76.5281 22.598 76.5281 22.802C76.5281 23.09 76.6841 23.33 76.9961 23.522C77.3201 23.702 77.8301 23.924 78.5261 24.188C79.3301 24.488 79.9901 24.776 80.5061 25.052C81.0341 25.328 81.4901 25.712 81.8741 26.204C82.2581 26.696 82.4501 27.314 82.4501 28.058C82.4501 28.838 82.2581 29.54 81.8741 30.164C81.4901 30.776 80.9321 31.256 80.2001 31.604C79.4681 31.952 78.5981 32.126 77.5901 32.126ZM106.605 19.256V27.482C106.605 29.006 106.203 30.164 105.399 30.956C104.607 31.736 103.491 32.126 102.051 32.126C100.503 32.126 99.2727 31.7 98.3607 30.848C97.4487 29.996 96.9927 28.754 96.9927 27.122H100.935C100.935 27.638 101.019 28.004 101.187 28.22C101.355 28.424 101.583 28.526 101.871 28.526C102.111 28.526 102.297 28.448 102.429 28.292C102.561 28.136 102.627 27.866 102.627 27.482V19.256H106.605ZM116.34 32.126C115.14 32.126 114.036 31.844 113.028 31.28C112.032 30.716 111.24 29.936 110.652 28.94C110.064 27.944 109.77 26.822 109.77 25.574C109.77 24.326 110.064 23.204 110.652 22.208C111.24 21.212 112.032 20.438 113.028 19.886C114.036 19.322 115.14 19.04 116.34 19.04C117.54 19.04 118.638 19.322 119.634 19.886C120.63 20.438 121.416 21.212 121.992 22.208C122.58 23.204 122.874 24.326 122.874 25.574C122.874 26.822 122.58 27.944 121.992 28.94C121.416 29.936 120.624 30.716 119.616 31.28C118.62 31.844 117.528 32.126 116.34 32.126ZM116.34 28.4C117.132 28.4 117.744 28.148 118.176 27.644C118.608 27.128 118.824 26.438 118.824 25.574C118.824 24.698 118.608 24.008 118.176 23.504C117.744 22.988 117.132 22.73 116.34 22.73C115.536 22.73 114.918 22.988 114.486 23.504C114.054 24.008 113.838 24.698 113.838 25.574C113.838 26.438 114.054 27.128 114.486 27.644C114.918 28.148 115.536 28.4 116.34 28.4ZM130.111 19.256V32H126.115V19.256H130.111ZM141.888 30.074H137.64L137.01 32H132.816L137.478 19.256H142.086L146.73 32H142.518L141.888 30.074ZM140.916 27.068L139.764 23.522L138.612 27.068H140.916ZM154.424 32.126C152.9 32.126 151.64 31.772 150.644 31.064C149.66 30.344 149.126 29.294 149.042 27.914H153.29C153.35 28.646 153.674 29.012 154.262 29.012C154.478 29.012 154.658 28.964 154.802 28.868C154.958 28.76 155.036 28.598 155.036 28.382C155.036 28.082 154.874 27.842 154.55 27.662C154.226 27.47 153.722 27.254 153.038 27.014C152.222 26.726 151.544 26.444 151.004 26.168C150.476 25.892 150.02 25.49 149.636 24.962C149.252 24.434 149.066 23.756 149.078 22.928C149.078 22.1 149.288 21.398 149.708 20.822C150.14 20.234 150.722 19.79 151.454 19.49C152.198 19.19 153.032 19.04 153.956 19.04C155.516 19.04 156.752 19.4 157.664 20.12C158.588 20.84 159.074 21.854 159.122 23.162H154.82C154.808 22.802 154.718 22.544 154.55 22.388C154.382 22.232 154.178 22.154 153.938 22.154C153.77 22.154 153.632 22.214 153.524 22.334C153.416 22.442 153.362 22.598 153.362 22.802C153.362 23.09 153.518 23.33 153.83 23.522C154.154 23.702 154.664 23.924 155.36 24.188C156.164 24.488 156.824 24.776 157.34 25.052C157.868 25.328 158.324 25.712 158.708 26.204C159.092 26.696 159.284 27.314 159.284 28.058C159.284 28.838 159.092 29.54 158.708 30.164C158.324 30.776 157.766 31.256 157.034 31.604C156.302 31.952 155.432 32.126 154.424 32.126Z" fill="white"/>
</svg>
