<svg width="292" height="292" viewBox="0 0 292 292" fill="none" xmlns="http://www.w3.org/2000/svg">
<path d="M126.866 3.92564C139.117 -1.14906 152.883 -1.14906 165.134 3.92563L232.932 32.0083C245.183 37.083 254.917 46.8167 259.992 59.0682L288.074 126.866C293.149 139.117 293.149 152.883 288.074 165.134L259.992 232.932C254.917 245.183 245.183 254.917 232.932 259.992L165.134 288.074C152.883 293.149 139.117 293.149 126.866 288.074L59.0682 259.992C46.8168 254.917 37.083 245.183 32.0084 232.932L3.92564 165.134C-1.14906 152.883 -1.14906 139.117 3.92563 126.866L32.0083 59.0682C37.083 46.8168 46.8167 37.083 59.0682 32.0084L126.866 3.92564Z" fill="url(#paint0_linear_988_6802)"/>
<defs>
<linearGradient id="paint0_linear_988_6802" x1="146" y1="-4" x2="146" y2="296" gradientUnits="userSpaceOnUse">
<stop stop-color="#FA0B5B"/>
<stop offset="1" stop-color="#395FF5"/>
</linearGradient>
</defs>
</svg>
