<svg width="30" height="30" viewBox="0 0 30 30" fill="none" xmlns="http://www.w3.org/2000/svg">
<path d="M2.5 2.5H4.67501C5.97002 2.5 7.00047 3.56972 6.98296 4.83749M26.925 8.60001L26.25 17.975C26.1125 19.7625 24.5375 21.2375 22.7375 21.2375H9.42499C7.37499 21.2375 5.7625 19.4875 5.9375 17.45L6.975 5C6.97958 4.94552 6.98222 4.89133 6.98296 4.83749M6.98296 4.83749H7.27501H22.5" stroke="white" stroke-width="1.5" stroke-miterlimit="10" stroke-linecap="round" stroke-linejoin="round"/>
<path d="M20.3125 27.5C21.1754 27.5 21.875 26.8004 21.875 25.9375C21.875 25.0746 21.1754 24.375 20.3125 24.375C19.4496 24.375 18.75 25.0746 18.75 25.9375C18.75 26.8004 19.4496 27.5 20.3125 27.5Z" stroke="white" stroke-width="1.5" stroke-miterlimit="10" stroke-linecap="round" stroke-linejoin="round"/>
<path d="M10.3125 27.5C11.1754 27.5 11.875 26.8004 11.875 25.9375C11.875 25.0746 11.1754 24.375 10.3125 24.375C9.44956 24.375 8.75 25.0746 8.75 25.9375C8.75 26.8004 9.44956 27.5 10.3125 27.5Z" stroke="white" stroke-width="1.5" stroke-miterlimit="10" stroke-linecap="round" stroke-linejoin="round"/>
<path d="M11.25 10H26.25" stroke="white" stroke-width="1.5" stroke-miterlimit="10" stroke-linecap="round" stroke-linejoin="round"/>
</svg>
